<?xml version="1.0" encoding="UTF-8" standalone="no"?><svg xmlns="http://www.w3.org/2000/svg" xmlns:xlink="http://www.w3.org/1999/xlink" contentStyleType="text/css" height="262px" preserveAspectRatio="none" style="width:906px;height:262px;background:#FFFFFF;" version="1.1" viewBox="0 0 906 262" width="906px" zoomAndPan="magnify"><defs/><g><rect fill="#F1F1F1" height="81.1875" rx="5" ry="5" style="stroke:#F1F1F1;stroke-width:1.5;" width="207" x="10" y="85.5"/><rect fill="#CCFF02" height="20.2969" rx="2" ry="2" style="stroke:#CCFF02;stroke-width:1.0;" width="205" x="11.5" y="85.5"/><text fill="#000000" font-family="sans-serif" font-size="14" font-weight="bold" lengthAdjust="spacing" textLength="101" x="15" y="100.4951">Page Header</text><text fill="#000000" font-family="sans-serif" font-size="14" lengthAdjust="spacing" textLength="27" x="126" y="100.4951">   </text><line style="stroke:#000000;stroke-width:1.0;" x1="121" x2="121" y1="85.5" y2="105.7969"/><rect fill="#CCFF02" height="20.2969" rx="2" ry="2" style="stroke:#CCFF02;stroke-width:1.0;" width="205" x="11.5" y="105.7969"/><line style="stroke:#000000;stroke-width:1.0;" x1="10" x2="217" y1="105.7969" y2="105.7969"/><text fill="#000000" font-family="sans-serif" font-size="14" font-weight="bold" lengthAdjust="spacing" textLength="42" x="15" y="120.792">u16[]</text><text fill="#000000" font-family="sans-serif" font-size="14" lengthAdjust="spacing" textLength="86" x="126" y="120.792">Cell pointers</text><line style="stroke:#000000;stroke-width:1.0;" x1="121" x2="121" y1="105.7969" y2="126.0938"/><rect fill="#CCFF02" height="20.2969" rx="2" ry="2" style="stroke:#CCFF02;stroke-width:1.0;" width="205" x="11.5" y="126.0938"/><line style="stroke:#000000;stroke-width:1.0;" x1="10" x2="217" y1="126.0938" y2="126.0938"/><text fill="#000000" font-family="sans-serif" font-size="14" font-weight="bold" lengthAdjust="spacing" textLength="32" x="15" y="141.0889">u8[]</text><text fill="#000000" font-family="sans-serif" font-size="14" lengthAdjust="spacing" textLength="54" x="126" y="141.0889">(ignore)</text><line style="stroke:#000000;stroke-width:1.0;" x1="121" x2="121" y1="126.0938" y2="146.3906"/><rect fill="#CCFF02" height="20.2969" rx="2" ry="2" style="stroke:#CCFF02;stroke-width:1.0;" width="205" x="11.5" y="146.3906"/><line style="stroke:#000000;stroke-width:1.0;" x1="10" x2="217" y1="146.3906" y2="146.3906"/><text fill="#000000" font-family="sans-serif" font-size="14" font-weight="bold" lengthAdjust="spacing" textLength="41" x="15" y="161.3857">Cell[]</text><text fill="#000000" font-family="sans-serif" font-size="14" lengthAdjust="spacing" textLength="27" x="126" y="161.3857">   </text><line style="stroke:#000000;stroke-width:1.0;" x1="121" x2="121" y1="146.3906" y2="166.6875"/><rect fill="none" height="81.1875" rx="5" ry="5" style="stroke:#000000;stroke-width:1.5;" width="207" x="10" y="85.5"/><rect fill="#F1F1F1" height="121.7813" rx="5" ry="5" style="stroke:#F1F1F1;stroke-width:1.5;" width="184" x="259.5" y="10"/><rect fill="#CCFF02" height="20.2969" rx="2" ry="2" style="stroke:#CCFF02;stroke-width:1.0;" width="182" x="261" y="10"/><text fill="#000000" font-family="sans-serif" font-size="14" font-weight="bold" lengthAdjust="spacing" textLength="20" x="264.5" y="24.9951">u8</text><text fill="#000000" font-family="sans-serif" font-size="14" lengthAdjust="spacing" textLength="69" x="314.5" y="24.9951">Page type</text><line style="stroke:#000000;stroke-width:1.0;" x1="309.5" x2="309.5" y1="10" y2="30.2969"/><rect fill="#CCFF02" height="20.2969" rx="2" ry="2" style="stroke:#CCFF02;stroke-width:1.0;" width="182" x="261" y="30.2969"/><line style="stroke:#000000;stroke-width:1.0;" x1="259.5" x2="443.5" y1="30.2969" y2="30.2969"/><text fill="#000000" font-family="sans-serif" font-size="14" font-weight="bold" lengthAdjust="spacing" textLength="30" x="264.5" y="45.292">u16</text><text fill="#000000" font-family="sans-serif" font-size="14" lengthAdjust="spacing" textLength="54" x="314.5" y="45.292">(ignore)</text><line style="stroke:#000000;stroke-width:1.0;" x1="309.5" x2="309.5" y1="30.2969" y2="50.5938"/><rect fill="#CCFF02" height="20.2969" rx="2" ry="2" style="stroke:#CCFF02;stroke-width:1.0;" width="182" x="261" y="50.5938"/><line style="stroke:#000000;stroke-width:1.0;" x1="259.5" x2="443.5" y1="50.5938" y2="50.5938"/><text fill="#000000" font-family="sans-serif" font-size="14" font-weight="bold" lengthAdjust="spacing" textLength="30" x="264.5" y="65.5889">u16</text><text fill="#000000" font-family="sans-serif" font-size="14" lengthAdjust="spacing" textLength="77" x="314.5" y="65.5889">Cells count</text><line style="stroke:#000000;stroke-width:1.0;" x1="309.5" x2="309.5" y1="50.5938" y2="70.8906"/><rect fill="#CCFF02" height="20.2969" rx="2" ry="2" style="stroke:#CCFF02;stroke-width:1.0;" width="182" x="261" y="70.8906"/><line style="stroke:#000000;stroke-width:1.0;" x1="259.5" x2="443.5" y1="70.8906" y2="70.8906"/><text fill="#000000" font-family="sans-serif" font-size="14" font-weight="bold" lengthAdjust="spacing" textLength="30" x="264.5" y="85.8857">u16</text><text fill="#000000" font-family="sans-serif" font-size="14" lengthAdjust="spacing" textLength="54" x="314.5" y="85.8857">(ignore)</text><line style="stroke:#000000;stroke-width:1.0;" x1="309.5" x2="309.5" y1="70.8906" y2="91.1875"/><rect fill="#CCFF02" height="20.2969" rx="2" ry="2" style="stroke:#CCFF02;stroke-width:1.0;" width="182" x="261" y="91.1875"/><line style="stroke:#000000;stroke-width:1.0;" x1="259.5" x2="443.5" y1="91.1875" y2="91.1875"/><text fill="#000000" font-family="sans-serif" font-size="14" font-weight="bold" lengthAdjust="spacing" textLength="20" x="264.5" y="106.1826">u8</text><text fill="#000000" font-family="sans-serif" font-size="14" lengthAdjust="spacing" textLength="54" x="314.5" y="106.1826">(ignore)</text><line style="stroke:#000000;stroke-width:1.0;" x1="309.5" x2="309.5" y1="91.1875" y2="111.4844"/><line style="stroke:#000000;stroke-width:1.0;" x1="259.5" x2="443.5" y1="111.4844" y2="111.4844"/><text fill="#000000" font-family="sans-serif" font-size="14" font-weight="bold" lengthAdjust="spacing" textLength="30" x="264.5" y="126.4795">u32</text><text fill="#000000" font-family="sans-serif" font-size="14" lengthAdjust="spacing" textLength="124" x="314.5" y="126.4795">Rightmost pointer</text><line style="stroke:#000000;stroke-width:1.0;" x1="309.5" x2="309.5" y1="111.4844" y2="131.7813"/><rect fill="none" height="121.7813" rx="5" ry="5" style="stroke:#000000;stroke-width:1.5;" width="184" x="259.5" y="10"/><rect fill="#F1F1F1" height="60.8906" rx="5" ry="5" style="stroke:#F1F1F1;stroke-width:1.5;" width="195" x="254" y="150.5"/><text fill="#000000" font-family="sans-serif" font-size="14" font-weight="bold" lengthAdjust="spacing" textLength="30" x="259" y="165.4951">u32</text><text fill="#000000" font-family="sans-serif" font-size="14" lengthAdjust="spacing" textLength="114" x="330" y="165.4951">Left child pointer</text><line style="stroke:#000000;stroke-width:1.0;" x1="325" x2="325" y1="150.5" y2="170.7969"/><line style="stroke:#000000;stroke-width:1.0;" x1="254" x2="449" y1="170.7969" y2="170.7969"/><text fill="#000000" font-family="sans-serif" font-size="14" font-weight="bold" lengthAdjust="spacing" textLength="45" x="259" y="185.792">varint</text><text fill="#000000" font-family="sans-serif" font-size="14" lengthAdjust="spacing" textLength="54" x="330" y="185.792">(ignore)</text><line style="stroke:#000000;stroke-width:1.0;" x1="325" x2="325" y1="170.7969" y2="191.0938"/><line style="stroke:#000000;stroke-width:1.0;" x1="254" x2="449" y1="191.0938" y2="191.0938"/><text fill="#000000" font-family="sans-serif" font-size="14" font-weight="bold" lengthAdjust="spacing" textLength="61" x="259" y="206.0889">Payload</text><text fill="#000000" font-family="sans-serif" font-size="14" lengthAdjust="spacing" textLength="27" x="330" y="206.0889">   </text><line style="stroke:#000000;stroke-width:1.0;" x1="325" x2="325" y1="191.0938" y2="211.3906"/><rect fill="none" height="60.8906" rx="5" ry="5" style="stroke:#000000;stroke-width:1.5;" width="195" x="254" y="150.5"/><rect fill="#F1F1F1" height="40.5938" rx="5" ry="5" style="stroke:#F1F1F1;stroke-width:1.5;" width="150" x="486" y="180.5"/><rect fill="#CCFF02" height="20.2969" rx="2" ry="2" style="stroke:#CCFF02;stroke-width:1.0;" width="148" x="487.5" y="180.5"/><text fill="#000000" font-family="sans-serif" font-size="14" font-weight="bold" lengthAdjust="spacing" textLength="118" x="491" y="195.4951">Record Header</text><text fill="#000000" font-family="sans-serif" font-size="14" lengthAdjust="spacing" textLength="27" x="619" y="195.4951">   </text><line style="stroke:#000000;stroke-width:1.0;" x1="614" x2="614" y1="180.5" y2="200.7969"/><rect fill="#CCFF02" height="20.2969" rx="2" ry="2" style="stroke:#CCFF02;stroke-width:1.0;" width="148" x="487.5" y="200.7969"/><line style="stroke:#000000;stroke-width:1.0;" x1="486" x2="636" y1="200.7969" y2="200.7969"/><text fill="#000000" font-family="sans-serif" font-size="14" font-weight="bold" lengthAdjust="spacing" textLength="100" x="491" y="215.792">Record Body</text><text fill="#000000" font-family="sans-serif" font-size="14" lengthAdjust="spacing" textLength="27" x="619" y="215.792">   </text><line style="stroke:#000000;stroke-width:1.0;" x1="614" x2="614" y1="200.7969" y2="221.0938"/><rect fill="none" height="40.5938" rx="5" ry="5" style="stroke:#000000;stroke-width:1.5;" width="150" x="486" y="180.5"/><rect fill="#F1F1F1" height="40.5938" rx="5" ry="5" style="stroke:#F1F1F1;stroke-width:1.5;" width="221" x="673" y="150.5"/><rect fill="#CCFF02" height="20.2969" rx="2" ry="2" style="stroke:#CCFF02;stroke-width:1.0;" width="219" x="674.5" y="150.5"/><text fill="#000000" font-family="sans-serif" font-size="14" font-weight="bold" lengthAdjust="spacing" textLength="45" x="678" y="165.4951">varint</text><text fill="#000000" font-family="sans-serif" font-size="14" lengthAdjust="spacing" textLength="119" x="745" y="165.4951">Total header size</text><line style="stroke:#000000;stroke-width:1.0;" x1="740" x2="740" y1="150.5" y2="170.7969"/><rect fill="#CCFF02" height="20.2969" rx="2" ry="2" style="stroke:#CCFF02;stroke-width:1.0;" width="219" x="674.5" y="170.7969"/><line style="stroke:#000000;stroke-width:1.0;" x1="673" x2="894" y1="170.7969" y2="170.7969"/><text fill="#000000" font-family="sans-serif" font-size="14" font-weight="bold" lengthAdjust="spacing" textLength="57" x="678" y="185.792">varint[]</text><text fill="#000000" font-family="sans-serif" font-size="14" lengthAdjust="spacing" textLength="144" x="745" y="185.792">Serial (column) types</text><line style="stroke:#000000;stroke-width:1.0;" x1="740" x2="740" y1="170.7969" y2="191.0938"/><rect fill="none" height="40.5938" rx="5" ry="5" style="stroke:#000000;stroke-width:1.5;" width="221" x="673" y="150.5"/><rect fill="#F1F1F1" height="40.5938" rx="5" ry="5" style="stroke:#F1F1F1;stroke-width:1.5;" width="107" x="730" y="209.5"/><text fill="#000000" font-family="sans-serif" font-size="14" font-weight="bold" lengthAdjust="spacing" textLength="44" x="735" y="224.4951">u8[][]</text><text fill="#000000" font-family="sans-serif" font-size="14" lengthAdjust="spacing" textLength="33" x="790" y="224.4951">Keys</text><line style="stroke:#000000;stroke-width:1.0;" x1="785" x2="785" y1="209.5" y2="229.7969"/><line style="stroke:#000000;stroke-width:1.0;" x1="730" x2="837" y1="229.7969" y2="229.7969"/><text fill="#000000" font-family="sans-serif" font-size="14" font-weight="bold" lengthAdjust="spacing" textLength="45" x="735" y="244.792">varint</text><text fill="#000000" font-family="sans-serif" font-size="14" lengthAdjust="spacing" textLength="42" x="790" y="244.792">RowId</text><line style="stroke:#000000;stroke-width:1.0;" x1="785" x2="785" y1="229.7969" y2="250.0938"/><rect fill="none" height="40.5938" rx="5" ry="5" style="stroke:#000000;stroke-width:1.5;" width="107" x="730" y="209.5"/><path d="M205,95 L218,95 C229.1634,95 240.7712,94.171 252.2727,92.8212 " fill="none" style="stroke:#000000;stroke-width:1.0;stroke-dasharray:3.0,3.0;"/><path d="M252.6562,95.836 L254.5338,92.5336 L251.8892,89.8064 L259.8098,91.8624 L252.6562,95.836 " fill="#000000" style="stroke:#000000;stroke-width:1.0;"/><ellipse cx="205" cy="95" fill="#000000" rx="3" ry="3" style="stroke:#000000;stroke-width:1.0;"/><path d="M624,190 L637,190 C646.2778,190 655.8598,189.618 665.4731,188.9624 " fill="none" style="stroke:#000000;stroke-width:1.0;stroke-dasharray:3.0,3.0;"/><path d="M665.706,192.0469 L667.7864,188.7877 L665.2401,185.878 L673.1843,188.3801 L665.706,192.0469 " fill="#000000" style="stroke:#000000;stroke-width:1.0;"/><ellipse cx="624" cy="190" fill="#000000" rx="3" ry="3" style="stroke:#000000;stroke-width:1.0;"/><path d="M624,211 L637,211 C665.2663,211 696.3555,214.5453 722.5543,218.5731 " fill="none" style="stroke:#000000;stroke-width:1.0;stroke-dasharray:3.0,3.0;"/><path d="M722.0727,221.6163 L724.8367,218.9342 L723.0359,215.5298 L730.1624,219.777 L722.0727,221.6163 " fill="#000000" style="stroke:#000000;stroke-width:1.0;"/><ellipse cx="624" cy="211" fill="#000000" rx="3" ry="3" style="stroke:#000000;stroke-width:1.0;"/><path d="M437,201 L450,201 C459.3095,201 469.0602,201 478.7503,201 " fill="none" style="stroke:#000000;stroke-width:1.0;stroke-dasharray:3.0,3.0;"/><path d="M478.7503,204.0995 L481.0749,201 L478.7503,197.9005 L486.4989,201 L478.7503,204.0995 " fill="#000000" style="stroke:#000000;stroke-width:1.0;"/><ellipse cx="437" cy="201" fill="#000000" rx="3" ry="3" style="stroke:#000000;stroke-width:1.0;"/><path d="M205,156 L218,156 C227.3621,156 237.032,156.6057 246.6872,157.6286 " fill="none" style="stroke:#000000;stroke-width:1.0;stroke-dasharray:3.0,3.0;"/><path d="M246.3247,160.7221 L249.0073,157.9004 L247.0496,154.535 L254.4211,158.5347 L246.3247,160.7221 " fill="#000000" style="stroke:#000000;stroke-width:1.0;"/><ellipse cx="205" cy="156" fill="#000000" rx="3" ry="3" style="stroke:#000000;stroke-width:1.0;"/><!--MD5=[9b68b621478593f8479cb56b898011c1]
@startjson
#highlight "Page Header"
#highlight "u16[]"
#highlight "u8[]"
#highlight "Cell[]"

#highlight "Page Header" / "u8"
#highlight "Page Header" / "u16"
#highlight "Page Header" / "u16 "
#highlight "Page Header" / "u16  "
#highlight "Page Header" / "u8"

#highlight "Cell[]" / "Payload" / "Record Header"
#highlight "Cell[]" / "Payload" / "Record Header" / "varint"
#highlight "Cell[]" / "Payload" / "Record Header" / "varint[]"

#highlight "Cell[]" / "Payload" / "Record Body"
{
   "Page Header": {
     "u8":    "Page type",
     "u16":   "(ignore)",
     "u16 ":  "Cells count",
     "u16  ": "(ignore)",
     "u8":    "(ignore)",
     "u32":   "Rightmost pointer"
   },
   "u16[]":  "Cell pointers",
   "u8[]":   "(ignore)",
   "Cell[]": {
     "u32":          "Left child pointer",
     "varint":       "(ignore)",
     "Payload": {
       "Record Header": {
         "varint":   "Total header size",
         "varint[]": "Serial (column) types"
       },
       "Record Body": {
         "u8[][]": "Keys",
         "varint": "RowId"
       }
     }
   }
}
@endjson

PlantUML version 1.2022.12(Sun Oct 23 20:12:26 CEST 2022)
(GPL source distribution)
Java Runtime: OpenJDK Runtime Environment
JVM: OpenJDK 64-Bit Server VM
Default Encoding: UTF-8
Language: en
Country: US
--></g></svg>