<?xml version="1.0" encoding="UTF-8" standalone="no"?><svg xmlns="http://www.w3.org/2000/svg" xmlns:xlink="http://www.w3.org/1999/xlink" contentStyleType="text/css" height="220px" preserveAspectRatio="none" style="width:848px;height:220px;background:#FFFFFF;" version="1.1" viewBox="0 0 848 220" width="848px" zoomAndPan="magnify"><defs/><g><rect fill="#F1F1F1" height="81.1875" rx="5" ry="5" style="stroke:#F1F1F1;stroke-width:1.5;" width="207" x="10" y="65"/><rect fill="#CCFF02" height="20.2969" rx="2" ry="2" style="stroke:#CCFF02;stroke-width:1.0;" width="205" x="11.5" y="65"/><text fill="#000000" font-family="sans-serif" font-size="14" font-weight="bold" lengthAdjust="spacing" textLength="101" x="15" y="79.9951">Page Header</text><text fill="#000000" font-family="sans-serif" font-size="14" lengthAdjust="spacing" textLength="27" x="126" y="79.9951">   </text><line style="stroke:#000000;stroke-width:1.0;" x1="121" x2="121" y1="65" y2="85.2969"/><rect fill="#CCFF02" height="20.2969" rx="2" ry="2" style="stroke:#CCFF02;stroke-width:1.0;" width="205" x="11.5" y="85.2969"/><line style="stroke:#000000;stroke-width:1.0;" x1="10" x2="217" y1="85.2969" y2="85.2969"/><text fill="#000000" font-family="sans-serif" font-size="14" font-weight="bold" lengthAdjust="spacing" textLength="42" x="15" y="100.292">u16[]</text><text fill="#000000" font-family="sans-serif" font-size="14" lengthAdjust="spacing" textLength="86" x="126" y="100.292">Cell pointers</text><line style="stroke:#000000;stroke-width:1.0;" x1="121" x2="121" y1="85.2969" y2="105.5938"/><rect fill="#CCFF02" height="20.2969" rx="2" ry="2" style="stroke:#CCFF02;stroke-width:1.0;" width="205" x="11.5" y="105.5938"/><line style="stroke:#000000;stroke-width:1.0;" x1="10" x2="217" y1="105.5938" y2="105.5938"/><text fill="#000000" font-family="sans-serif" font-size="14" font-weight="bold" lengthAdjust="spacing" textLength="32" x="15" y="120.5889">u8[]</text><text fill="#000000" font-family="sans-serif" font-size="14" lengthAdjust="spacing" textLength="54" x="126" y="120.5889">(ignore)</text><line style="stroke:#000000;stroke-width:1.0;" x1="121" x2="121" y1="105.5938" y2="125.8906"/><rect fill="#CCFF02" height="20.2969" rx="2" ry="2" style="stroke:#CCFF02;stroke-width:1.0;" width="205" x="11.5" y="125.8906"/><line style="stroke:#000000;stroke-width:1.0;" x1="10" x2="217" y1="125.8906" y2="125.8906"/><text fill="#000000" font-family="sans-serif" font-size="14" font-weight="bold" lengthAdjust="spacing" textLength="41" x="15" y="140.8857">Cell[]</text><text fill="#000000" font-family="sans-serif" font-size="14" lengthAdjust="spacing" textLength="27" x="126" y="140.8857">   </text><line style="stroke:#000000;stroke-width:1.0;" x1="121" x2="121" y1="125.8906" y2="146.1875"/><rect fill="none" height="81.1875" rx="5" ry="5" style="stroke:#000000;stroke-width:1.5;" width="207" x="10" y="65"/><rect fill="#F1F1F1" height="101.4844" rx="5" ry="5" style="stroke:#F1F1F1;stroke-width:1.5;" width="137" x="254" y="10"/><rect fill="#CCFF02" height="20.2969" rx="2" ry="2" style="stroke:#CCFF02;stroke-width:1.0;" width="135" x="255.5" y="10"/><text fill="#000000" font-family="sans-serif" font-size="14" font-weight="bold" lengthAdjust="spacing" textLength="20" x="259" y="24.9951">u8</text><text fill="#000000" font-family="sans-serif" font-size="14" lengthAdjust="spacing" textLength="69" x="309" y="24.9951">Page type</text><line style="stroke:#000000;stroke-width:1.0;" x1="304" x2="304" y1="10" y2="30.2969"/><rect fill="#CCFF02" height="20.2969" rx="2" ry="2" style="stroke:#CCFF02;stroke-width:1.0;" width="135" x="255.5" y="30.2969"/><line style="stroke:#000000;stroke-width:1.0;" x1="254" x2="391" y1="30.2969" y2="30.2969"/><text fill="#000000" font-family="sans-serif" font-size="14" font-weight="bold" lengthAdjust="spacing" textLength="30" x="259" y="45.292">u16</text><text fill="#000000" font-family="sans-serif" font-size="14" lengthAdjust="spacing" textLength="54" x="309" y="45.292">(ignore)</text><line style="stroke:#000000;stroke-width:1.0;" x1="304" x2="304" y1="30.2969" y2="50.5938"/><rect fill="#CCFF02" height="20.2969" rx="2" ry="2" style="stroke:#CCFF02;stroke-width:1.0;" width="135" x="255.5" y="50.5938"/><line style="stroke:#000000;stroke-width:1.0;" x1="254" x2="391" y1="50.5938" y2="50.5938"/><text fill="#000000" font-family="sans-serif" font-size="14" font-weight="bold" lengthAdjust="spacing" textLength="30" x="259" y="65.5889">u16</text><text fill="#000000" font-family="sans-serif" font-size="14" lengthAdjust="spacing" textLength="77" x="309" y="65.5889">Cells count</text><line style="stroke:#000000;stroke-width:1.0;" x1="304" x2="304" y1="50.5938" y2="70.8906"/><rect fill="#CCFF02" height="20.2969" rx="2" ry="2" style="stroke:#CCFF02;stroke-width:1.0;" width="135" x="255.5" y="70.8906"/><line style="stroke:#000000;stroke-width:1.0;" x1="254" x2="391" y1="70.8906" y2="70.8906"/><text fill="#000000" font-family="sans-serif" font-size="14" font-weight="bold" lengthAdjust="spacing" textLength="30" x="259" y="85.8857">u16</text><text fill="#000000" font-family="sans-serif" font-size="14" lengthAdjust="spacing" textLength="54" x="309" y="85.8857">(ignore)</text><line style="stroke:#000000;stroke-width:1.0;" x1="304" x2="304" y1="70.8906" y2="91.1875"/><rect fill="#CCFF02" height="20.2969" rx="2" ry="2" style="stroke:#CCFF02;stroke-width:1.0;" width="135" x="255.5" y="91.1875"/><line style="stroke:#000000;stroke-width:1.0;" x1="254" x2="391" y1="91.1875" y2="91.1875"/><text fill="#000000" font-family="sans-serif" font-size="14" font-weight="bold" lengthAdjust="spacing" textLength="20" x="259" y="106.1826">u8</text><text fill="#000000" font-family="sans-serif" font-size="14" lengthAdjust="spacing" textLength="54" x="309" y="106.1826">(ignore)</text><line style="stroke:#000000;stroke-width:1.0;" x1="304" x2="304" y1="91.1875" y2="111.4844"/><rect fill="none" height="101.4844" rx="5" ry="5" style="stroke:#000000;stroke-width:1.5;" width="137" x="254" y="10"/><rect fill="#F1F1F1" height="40.5938" rx="5" ry="5" style="stroke:#F1F1F1;stroke-width:1.5;" width="135" x="255" y="129"/><text fill="#000000" font-family="sans-serif" font-size="14" font-weight="bold" lengthAdjust="spacing" textLength="45" x="260" y="143.9951">varint</text><text fill="#000000" font-family="sans-serif" font-size="14" lengthAdjust="spacing" textLength="54" x="331" y="143.9951">(ignore)</text><line style="stroke:#000000;stroke-width:1.0;" x1="326" x2="326" y1="129" y2="149.2969"/><line style="stroke:#000000;stroke-width:1.0;" x1="255" x2="390" y1="149.2969" y2="149.2969"/><text fill="#000000" font-family="sans-serif" font-size="14" font-weight="bold" lengthAdjust="spacing" textLength="61" x="260" y="164.292">Payload</text><text fill="#000000" font-family="sans-serif" font-size="14" lengthAdjust="spacing" textLength="27" x="331" y="164.292">   </text><line style="stroke:#000000;stroke-width:1.0;" x1="326" x2="326" y1="149.2969" y2="169.5938"/><rect fill="none" height="40.5938" rx="5" ry="5" style="stroke:#000000;stroke-width:1.5;" width="135" x="255" y="129"/><rect fill="#F1F1F1" height="40.5938" rx="5" ry="5" style="stroke:#F1F1F1;stroke-width:1.5;" width="150" x="428" y="139"/><rect fill="#CCFF02" height="20.2969" rx="2" ry="2" style="stroke:#CCFF02;stroke-width:1.0;" width="148" x="429.5" y="139"/><text fill="#000000" font-family="sans-serif" font-size="14" font-weight="bold" lengthAdjust="spacing" textLength="118" x="433" y="153.9951">Record Header</text><text fill="#000000" font-family="sans-serif" font-size="14" lengthAdjust="spacing" textLength="27" x="561" y="153.9951">   </text><line style="stroke:#000000;stroke-width:1.0;" x1="556" x2="556" y1="139" y2="159.2969"/><rect fill="#CCFF02" height="20.2969" rx="2" ry="2" style="stroke:#CCFF02;stroke-width:1.0;" width="148" x="429.5" y="159.2969"/><line style="stroke:#000000;stroke-width:1.0;" x1="428" x2="578" y1="159.2969" y2="159.2969"/><text fill="#000000" font-family="sans-serif" font-size="14" font-weight="bold" lengthAdjust="spacing" textLength="100" x="433" y="174.292">Record Body</text><text fill="#000000" font-family="sans-serif" font-size="14" lengthAdjust="spacing" textLength="27" x="561" y="174.292">   </text><line style="stroke:#000000;stroke-width:1.0;" x1="556" x2="556" y1="159.2969" y2="179.5938"/><rect fill="none" height="40.5938" rx="5" ry="5" style="stroke:#000000;stroke-width:1.5;" width="150" x="428" y="139"/><rect fill="#F1F1F1" height="40.5938" rx="5" ry="5" style="stroke:#F1F1F1;stroke-width:1.5;" width="221" x="615" y="109"/><rect fill="#CCFF02" height="20.2969" rx="2" ry="2" style="stroke:#CCFF02;stroke-width:1.0;" width="219" x="616.5" y="109"/><text fill="#000000" font-family="sans-serif" font-size="14" font-weight="bold" lengthAdjust="spacing" textLength="45" x="620" y="123.9951">varint</text><text fill="#000000" font-family="sans-serif" font-size="14" lengthAdjust="spacing" textLength="119" x="687" y="123.9951">Total header size</text><line style="stroke:#000000;stroke-width:1.0;" x1="682" x2="682" y1="109" y2="129.2969"/><rect fill="#CCFF02" height="20.2969" rx="2" ry="2" style="stroke:#CCFF02;stroke-width:1.0;" width="219" x="616.5" y="129.2969"/><line style="stroke:#000000;stroke-width:1.0;" x1="615" x2="836" y1="129.2969" y2="129.2969"/><text fill="#000000" font-family="sans-serif" font-size="14" font-weight="bold" lengthAdjust="spacing" textLength="57" x="620" y="144.292">varint[]</text><text fill="#000000" font-family="sans-serif" font-size="14" lengthAdjust="spacing" textLength="144" x="687" y="144.292">Serial (column) types</text><line style="stroke:#000000;stroke-width:1.0;" x1="682" x2="682" y1="129.2969" y2="149.5938"/><rect fill="none" height="40.5938" rx="5" ry="5" style="stroke:#000000;stroke-width:1.5;" width="221" x="615" y="109"/><rect fill="#F1F1F1" height="40.5938" rx="5" ry="5" style="stroke:#F1F1F1;stroke-width:1.5;" width="107" x="672" y="168"/><text fill="#000000" font-family="sans-serif" font-size="14" font-weight="bold" lengthAdjust="spacing" textLength="44" x="677" y="182.9951">u8[][]</text><text fill="#000000" font-family="sans-serif" font-size="14" lengthAdjust="spacing" textLength="33" x="732" y="182.9951">Keys</text><line style="stroke:#000000;stroke-width:1.0;" x1="727" x2="727" y1="168" y2="188.2969"/><line style="stroke:#000000;stroke-width:1.0;" x1="672" x2="779" y1="188.2969" y2="188.2969"/><text fill="#000000" font-family="sans-serif" font-size="14" font-weight="bold" lengthAdjust="spacing" textLength="45" x="677" y="203.292">varint</text><text fill="#000000" font-family="sans-serif" font-size="14" lengthAdjust="spacing" textLength="42" x="732" y="203.292">RowId</text><line style="stroke:#000000;stroke-width:1.0;" x1="727" x2="727" y1="188.2969" y2="208.5938"/><rect fill="none" height="40.5938" rx="5" ry="5" style="stroke:#000000;stroke-width:1.5;" width="107" x="672" y="168"/><path d="M205,74.5 L218,74.5 C227.3441,74.5 237.1185,73.9381 246.7757,73.0393 " fill="none" style="stroke:#000000;stroke-width:1.0;stroke-dasharray:3.0,3.0;"/><path d="M247.0912,76.1231 L249.0886,72.8027 L246.4603,69.9556 L254.4851,72.2507 L247.0912,76.1231 " fill="#000000" style="stroke:#000000;stroke-width:1.0;"/><ellipse cx="205" cy="74.5" fill="#000000" rx="3" ry="3" style="stroke:#000000;stroke-width:1.0;"/><path d="M566,148.5 L579,148.5 C588.2778,148.5 597.8598,148.118 607.4731,147.4624 " fill="none" style="stroke:#000000;stroke-width:1.0;stroke-dasharray:3.0,3.0;"/><path d="M607.706,150.5469 L609.7864,147.2877 L607.2401,144.378 L615.1843,146.8801 L607.706,150.5469 " fill="#000000" style="stroke:#000000;stroke-width:1.0;"/><ellipse cx="566" cy="148.5" fill="#000000" rx="3" ry="3" style="stroke:#000000;stroke-width:1.0;"/><path d="M566,169.5 L579,169.5 C607.2663,169.5 638.3555,173.0453 664.5543,177.0731 " fill="none" style="stroke:#000000;stroke-width:1.0;stroke-dasharray:3.0,3.0;"/><path d="M664.0727,180.1163 L666.8367,177.4342 L665.0359,174.0298 L672.1624,178.277 L664.0727,180.1163 " fill="#000000" style="stroke:#000000;stroke-width:1.0;"/><ellipse cx="566" cy="169.5" fill="#000000" rx="3" ry="3" style="stroke:#000000;stroke-width:1.0;"/><path d="M379,159.5 L392,159.5 C401.3095,159.5 411.0602,159.5 420.7503,159.5 " fill="none" style="stroke:#000000;stroke-width:1.0;stroke-dasharray:3.0,3.0;"/><path d="M420.7503,162.5995 L423.0749,159.5 L420.7503,156.4005 L428.4989,159.5 L420.7503,162.5995 " fill="#000000" style="stroke:#000000;stroke-width:1.0;"/><ellipse cx="379" cy="159.5" fill="#000000" rx="3" ry="3" style="stroke:#000000;stroke-width:1.0;"/><path d="M205,135.5 L218,135.5 C227.6543,135.5 237.7681,136.0999 247.7374,137.0513 " fill="none" style="stroke:#000000;stroke-width:1.0;stroke-dasharray:3.0,3.0;"/><path d="M247.4206,140.0855 L250.013,137.2889 L248.0542,134.0171 L255.3228,137.8433 L247.4206,140.0855 " fill="#000000" style="stroke:#000000;stroke-width:1.0;"/><ellipse cx="205" cy="135.5" fill="#000000" rx="3" ry="3" style="stroke:#000000;stroke-width:1.0;"/><!--MD5=[8c78b07c4000e8a91f534b05e1ec5d1b]
@startjson
#highlight "Page Header"
#highlight "u16[]"
#highlight "u8[]"
#highlight "Cell[]"

#highlight "Page Header" / "u8"
#highlight "Page Header" / "u16"
#highlight "Page Header" / "u16 "
#highlight "Page Header" / "u16  "
#highlight "Page Header" / "u8"

#highlight "Cell[]" / "Payload" / "Record Header"
#highlight "Cell[]" / "Payload" / "Record Header" / "varint"
#highlight "Cell[]" / "Payload" / "Record Header" / "varint[]"

#highlight "Cell[]" / "Payload" / "Record Body"
{
   "Page Header": {
     "u8":    "Page type",
     "u16":   "(ignore)",
     "u16 ":  "Cells count",
     "u16  ": "(ignore)",
     "u8":    "(ignore)"
   },
   "u16[]":  "Cell pointers",
   "u8[]":   "(ignore)",
   "Cell[]": {
     "varint":       "(ignore)",
     "Payload": {
       "Record Header": {
         "varint":   "Total header size",
         "varint[]": "Serial (column) types"
       },
       "Record Body": {
         "u8[][]": "Keys",
         "varint": "RowId"
       }
     }
   }
}
@endjson

PlantUML version 1.2022.12(Sun Oct 23 20:12:26 CEST 2022)
(GPL source distribution)
Java Runtime: OpenJDK Runtime Environment
JVM: OpenJDK 64-Bit Server VM
Default Encoding: UTF-8
Language: en
Country: US
--></g></svg>