<?xml version="1.0" encoding="UTF-8" standalone="no"?><svg xmlns="http://www.w3.org/2000/svg" xmlns:xlink="http://www.w3.org/1999/xlink" contentStyleType="text/css" height="203px" preserveAspectRatio="none" style="width:450px;height:203px;background:#FFFFFF;" version="1.1" viewBox="0 0 450 203" width="450px" zoomAndPan="magnify"><defs/><g><rect fill="#F1F1F1" height="81.1875" rx="5" ry="5" style="stroke:#F1F1F1;stroke-width:1.5;" width="207" x="10" y="80.5"/><rect fill="#CCFF02" height="20.2969" rx="2" ry="2" style="stroke:#CCFF02;stroke-width:1.0;" width="205" x="11.5" y="80.5"/><text fill="#000000" font-family="sans-serif" font-size="14" font-weight="bold" lengthAdjust="spacing" textLength="101" x="15" y="95.4951">Page Header</text><text fill="#000000" font-family="sans-serif" font-size="14" lengthAdjust="spacing" textLength="27" x="126" y="95.4951">   </text><line style="stroke:#000000;stroke-width:1.0;" x1="121" x2="121" y1="80.5" y2="100.7969"/><rect fill="#CCFF02" height="20.2969" rx="2" ry="2" style="stroke:#CCFF02;stroke-width:1.0;" width="205" x="11.5" y="100.7969"/><line style="stroke:#000000;stroke-width:1.0;" x1="10" x2="217" y1="100.7969" y2="100.7969"/><text fill="#000000" font-family="sans-serif" font-size="14" font-weight="bold" lengthAdjust="spacing" textLength="42" x="15" y="115.792">u16[]</text><text fill="#000000" font-family="sans-serif" font-size="14" lengthAdjust="spacing" textLength="86" x="126" y="115.792">Cell pointers</text><line style="stroke:#000000;stroke-width:1.0;" x1="121" x2="121" y1="100.7969" y2="121.0938"/><rect fill="#CCFF02" height="20.2969" rx="2" ry="2" style="stroke:#CCFF02;stroke-width:1.0;" width="205" x="11.5" y="121.0938"/><line style="stroke:#000000;stroke-width:1.0;" x1="10" x2="217" y1="121.0938" y2="121.0938"/><text fill="#000000" font-family="sans-serif" font-size="14" font-weight="bold" lengthAdjust="spacing" textLength="32" x="15" y="136.0889">u8[]</text><text fill="#000000" font-family="sans-serif" font-size="14" lengthAdjust="spacing" textLength="54" x="126" y="136.0889">(ignore)</text><line style="stroke:#000000;stroke-width:1.0;" x1="121" x2="121" y1="121.0938" y2="141.3906"/><rect fill="#CCFF02" height="20.2969" rx="2" ry="2" style="stroke:#CCFF02;stroke-width:1.0;" width="205" x="11.5" y="141.3906"/><line style="stroke:#000000;stroke-width:1.0;" x1="10" x2="217" y1="141.3906" y2="141.3906"/><text fill="#000000" font-family="sans-serif" font-size="14" font-weight="bold" lengthAdjust="spacing" textLength="41" x="15" y="156.3857">Cell[]</text><text fill="#000000" font-family="sans-serif" font-size="14" lengthAdjust="spacing" textLength="27" x="126" y="156.3857">   </text><line style="stroke:#000000;stroke-width:1.0;" x1="121" x2="121" y1="141.3906" y2="161.6875"/><rect fill="none" height="81.1875" rx="5" ry="5" style="stroke:#000000;stroke-width:1.5;" width="207" x="10" y="80.5"/><rect fill="#F1F1F1" height="121.7813" rx="5" ry="5" style="stroke:#F1F1F1;stroke-width:1.5;" width="184" x="254" y="10"/><rect fill="#CCFF02" height="20.2969" rx="2" ry="2" style="stroke:#CCFF02;stroke-width:1.0;" width="182" x="255.5" y="10"/><text fill="#000000" font-family="sans-serif" font-size="14" font-weight="bold" lengthAdjust="spacing" textLength="20" x="259" y="24.9951">u8</text><text fill="#000000" font-family="sans-serif" font-size="14" lengthAdjust="spacing" textLength="69" x="309" y="24.9951">Page type</text><line style="stroke:#000000;stroke-width:1.0;" x1="304" x2="304" y1="10" y2="30.2969"/><rect fill="#CCFF02" height="20.2969" rx="2" ry="2" style="stroke:#CCFF02;stroke-width:1.0;" width="182" x="255.5" y="30.2969"/><line style="stroke:#000000;stroke-width:1.0;" x1="254" x2="438" y1="30.2969" y2="30.2969"/><text fill="#000000" font-family="sans-serif" font-size="14" font-weight="bold" lengthAdjust="spacing" textLength="30" x="259" y="45.292">u16</text><text fill="#000000" font-family="sans-serif" font-size="14" lengthAdjust="spacing" textLength="54" x="309" y="45.292">(ignore)</text><line style="stroke:#000000;stroke-width:1.0;" x1="304" x2="304" y1="30.2969" y2="50.5938"/><rect fill="#CCFF02" height="20.2969" rx="2" ry="2" style="stroke:#CCFF02;stroke-width:1.0;" width="182" x="255.5" y="50.5938"/><line style="stroke:#000000;stroke-width:1.0;" x1="254" x2="438" y1="50.5938" y2="50.5938"/><text fill="#000000" font-family="sans-serif" font-size="14" font-weight="bold" lengthAdjust="spacing" textLength="30" x="259" y="65.5889">u16</text><text fill="#000000" font-family="sans-serif" font-size="14" lengthAdjust="spacing" textLength="77" x="309" y="65.5889">Cells count</text><line style="stroke:#000000;stroke-width:1.0;" x1="304" x2="304" y1="50.5938" y2="70.8906"/><rect fill="#CCFF02" height="20.2969" rx="2" ry="2" style="stroke:#CCFF02;stroke-width:1.0;" width="182" x="255.5" y="70.8906"/><line style="stroke:#000000;stroke-width:1.0;" x1="254" x2="438" y1="70.8906" y2="70.8906"/><text fill="#000000" font-family="sans-serif" font-size="14" font-weight="bold" lengthAdjust="spacing" textLength="30" x="259" y="85.8857">u16</text><text fill="#000000" font-family="sans-serif" font-size="14" lengthAdjust="spacing" textLength="54" x="309" y="85.8857">(ignore)</text><line style="stroke:#000000;stroke-width:1.0;" x1="304" x2="304" y1="70.8906" y2="91.1875"/><rect fill="#CCFF02" height="20.2969" rx="2" ry="2" style="stroke:#CCFF02;stroke-width:1.0;" width="182" x="255.5" y="91.1875"/><line style="stroke:#000000;stroke-width:1.0;" x1="254" x2="438" y1="91.1875" y2="91.1875"/><text fill="#000000" font-family="sans-serif" font-size="14" font-weight="bold" lengthAdjust="spacing" textLength="20" x="259" y="106.1826">u8</text><text fill="#000000" font-family="sans-serif" font-size="14" lengthAdjust="spacing" textLength="54" x="309" y="106.1826">(ignore)</text><line style="stroke:#000000;stroke-width:1.0;" x1="304" x2="304" y1="91.1875" y2="111.4844"/><line style="stroke:#000000;stroke-width:1.0;" x1="254" x2="438" y1="111.4844" y2="111.4844"/><text fill="#000000" font-family="sans-serif" font-size="14" font-weight="bold" lengthAdjust="spacing" textLength="30" x="259" y="126.4795">u32</text><text fill="#000000" font-family="sans-serif" font-size="14" lengthAdjust="spacing" textLength="124" x="309" y="126.4795">Rightmost pointer</text><line style="stroke:#000000;stroke-width:1.0;" x1="304" x2="304" y1="111.4844" y2="131.7813"/><rect fill="none" height="121.7813" rx="5" ry="5" style="stroke:#000000;stroke-width:1.5;" width="184" x="254" y="10"/><rect fill="#F1F1F1" height="40.5938" rx="5" ry="5" style="stroke:#F1F1F1;stroke-width:1.5;" width="179" x="256.5" y="150.5"/><text fill="#000000" font-family="sans-serif" font-size="14" font-weight="bold" lengthAdjust="spacing" textLength="30" x="261.5" y="165.4951">u32</text><text fill="#000000" font-family="sans-serif" font-size="14" lengthAdjust="spacing" textLength="114" x="316.5" y="165.4951">Left child pointer</text><line style="stroke:#000000;stroke-width:1.0;" x1="311.5" x2="311.5" y1="150.5" y2="170.7969"/><line style="stroke:#000000;stroke-width:1.0;" x1="256.5" x2="435.5" y1="170.7969" y2="170.7969"/><text fill="#000000" font-family="sans-serif" font-size="14" font-weight="bold" lengthAdjust="spacing" textLength="45" x="261.5" y="185.792">varint</text><text fill="#000000" font-family="sans-serif" font-size="14" lengthAdjust="spacing" textLength="42" x="316.5" y="185.792">RowId</text><line style="stroke:#000000;stroke-width:1.0;" x1="311.5" x2="311.5" y1="170.7969" y2="191.0938"/><rect fill="none" height="40.5938" rx="5" ry="5" style="stroke:#000000;stroke-width:1.5;" width="179" x="256.5" y="150.5"/><path d="M205,90 L218,90 C227.271,90 236.8802,89.5025 246.4754,88.6684 " fill="none" style="stroke:#000000;stroke-width:1.0;stroke-dasharray:3.0,3.0;"/><path d="M246.7706,91.7426 L248.7811,88.4471 L246.1803,85.5943 L254.1608,87.9305 L246.7706,91.7426 " fill="#000000" style="stroke:#000000;stroke-width:1.0;"/><ellipse cx="205" cy="90" fill="#000000" rx="3" ry="3" style="stroke:#000000;stroke-width:1.0;"/><path d="M205,151 L218,151 C228.1869,151 238.7769,151.6308 249.3055,152.6684 " fill="none" style="stroke:#000000;stroke-width:1.0;stroke-dasharray:3.0,3.0;"/><path d="M248.9759,155.728 L251.6002,152.9156 L249.6352,149.6088 L256.9545,153.4926 L248.9759,155.728 " fill="#000000" style="stroke:#000000;stroke-width:1.0;"/><ellipse cx="205" cy="151" fill="#000000" rx="3" ry="3" style="stroke:#000000;stroke-width:1.0;"/><!--MD5=[b2a232f7ff53d3d10e967a93626ab3a5]
@startjson
#highlight "Page Header"
#highlight "u16[]"
#highlight "u8[]"
#highlight "Cell[]"

#highlight "Page Header" / "u8"
#highlight "Page Header" / "u16"
#highlight "Page Header" / "u16 "
#highlight "Page Header" / "u16  "
#highlight "Page Header" / "u8"

#highlight "Cell[]" / "Payload" / "Record Header"
#highlight "Cell[]" / "Payload" / "Record Header" / "varint"
#highlight "Cell[]" / "Payload" / "Record Header" / "varint[]"

#highlight "Cell[]" / "Payload" / "Record Body"
{
   "Page Header": {
     "u8":    "Page type",
     "u16":   "(ignore)",
     "u16 ":  "Cells count",
     "u16  ": "(ignore)",
     "u8":    "(ignore)",
     "u32":   "Rightmost pointer"
   },
   "u16[]":  "Cell pointers",
   "u8[]":   "(ignore)",
   "Cell[]": {
     "u32":          "Left child pointer",
     "varint":       "RowId"
   }
}
@endjson

PlantUML version 1.2022.12(Sun Oct 23 20:12:26 CEST 2022)
(GPL source distribution)
Java Runtime: OpenJDK Runtime Environment
JVM: OpenJDK 64-Bit Server VM
Default Encoding: UTF-8
Language: en
Country: US
--></g></svg>