<?xml version="1.0" encoding="UTF-8" standalone="no"?><svg xmlns="http://www.w3.org/2000/svg" xmlns:xlink="http://www.w3.org/1999/xlink" contentStyleType="text/css" height="225px" preserveAspectRatio="none" style="width:848px;height:225px;background:#FFFFFF;" version="1.1" viewBox="0 0 848 225" width="848px" zoomAndPan="magnify"><defs/><g><rect fill="#F1F1F1" height="81.1875" rx="5" ry="5" style="stroke:#F1F1F1;stroke-width:1.5;" width="207" x="10" y="70"/><rect fill="#CCFF02" height="20.2969" rx="2" ry="2" style="stroke:#CCFF02;stroke-width:1.0;" width="205" x="11.5" y="70"/><text fill="#000000" font-family="sans-serif" font-size="14" font-weight="bold" lengthAdjust="spacing" textLength="101" x="15" y="84.9951">Page Header</text><text fill="#000000" font-family="sans-serif" font-size="14" lengthAdjust="spacing" textLength="27" x="126" y="84.9951">   </text><line style="stroke:#000000;stroke-width:1.0;" x1="121" x2="121" y1="70" y2="90.2969"/><rect fill="#CCFF02" height="20.2969" rx="2" ry="2" style="stroke:#CCFF02;stroke-width:1.0;" width="205" x="11.5" y="90.2969"/><line style="stroke:#000000;stroke-width:1.0;" x1="10" x2="217" y1="90.2969" y2="90.2969"/><text fill="#000000" font-family="sans-serif" font-size="14" font-weight="bold" lengthAdjust="spacing" textLength="42" x="15" y="105.292">u16[]</text><text fill="#000000" font-family="sans-serif" font-size="14" lengthAdjust="spacing" textLength="86" x="126" y="105.292">Cell pointers</text><line style="stroke:#000000;stroke-width:1.0;" x1="121" x2="121" y1="90.2969" y2="110.5938"/><rect fill="#CCFF02" height="20.2969" rx="2" ry="2" style="stroke:#CCFF02;stroke-width:1.0;" width="205" x="11.5" y="110.5938"/><line style="stroke:#000000;stroke-width:1.0;" x1="10" x2="217" y1="110.5938" y2="110.5938"/><text fill="#000000" font-family="sans-serif" font-size="14" font-weight="bold" lengthAdjust="spacing" textLength="32" x="15" y="125.5889">u8[]</text><text fill="#000000" font-family="sans-serif" font-size="14" lengthAdjust="spacing" textLength="54" x="126" y="125.5889">(ignore)</text><line style="stroke:#000000;stroke-width:1.0;" x1="121" x2="121" y1="110.5938" y2="130.8906"/><rect fill="#CCFF02" height="20.2969" rx="2" ry="2" style="stroke:#CCFF02;stroke-width:1.0;" width="205" x="11.5" y="130.8906"/><line style="stroke:#000000;stroke-width:1.0;" x1="10" x2="217" y1="130.8906" y2="130.8906"/><text fill="#000000" font-family="sans-serif" font-size="14" font-weight="bold" lengthAdjust="spacing" textLength="41" x="15" y="145.8857">Cell[]</text><text fill="#000000" font-family="sans-serif" font-size="14" lengthAdjust="spacing" textLength="27" x="126" y="145.8857">   </text><line style="stroke:#000000;stroke-width:1.0;" x1="121" x2="121" y1="130.8906" y2="151.1875"/><rect fill="none" height="81.1875" rx="5" ry="5" style="stroke:#000000;stroke-width:1.5;" width="207" x="10" y="70"/><rect fill="#F1F1F1" height="101.4844" rx="5" ry="5" style="stroke:#F1F1F1;stroke-width:1.5;" width="137" x="254" y="10"/><rect fill="#CCFF02" height="20.2969" rx="2" ry="2" style="stroke:#CCFF02;stroke-width:1.0;" width="135" x="255.5" y="10"/><text fill="#000000" font-family="sans-serif" font-size="14" font-weight="bold" lengthAdjust="spacing" textLength="20" x="259" y="24.9951">u8</text><text fill="#000000" font-family="sans-serif" font-size="14" lengthAdjust="spacing" textLength="69" x="309" y="24.9951">Page type</text><line style="stroke:#000000;stroke-width:1.0;" x1="304" x2="304" y1="10" y2="30.2969"/><rect fill="#CCFF02" height="20.2969" rx="2" ry="2" style="stroke:#CCFF02;stroke-width:1.0;" width="135" x="255.5" y="30.2969"/><line style="stroke:#000000;stroke-width:1.0;" x1="254" x2="391" y1="30.2969" y2="30.2969"/><text fill="#000000" font-family="sans-serif" font-size="14" font-weight="bold" lengthAdjust="spacing" textLength="30" x="259" y="45.292">u16</text><text fill="#000000" font-family="sans-serif" font-size="14" lengthAdjust="spacing" textLength="54" x="309" y="45.292">(ignore)</text><line style="stroke:#000000;stroke-width:1.0;" x1="304" x2="304" y1="30.2969" y2="50.5938"/><rect fill="#CCFF02" height="20.2969" rx="2" ry="2" style="stroke:#CCFF02;stroke-width:1.0;" width="135" x="255.5" y="50.5938"/><line style="stroke:#000000;stroke-width:1.0;" x1="254" x2="391" y1="50.5938" y2="50.5938"/><text fill="#000000" font-family="sans-serif" font-size="14" font-weight="bold" lengthAdjust="spacing" textLength="30" x="259" y="65.5889">u16</text><text fill="#000000" font-family="sans-serif" font-size="14" lengthAdjust="spacing" textLength="77" x="309" y="65.5889">Cells count</text><line style="stroke:#000000;stroke-width:1.0;" x1="304" x2="304" y1="50.5938" y2="70.8906"/><rect fill="#CCFF02" height="20.2969" rx="2" ry="2" style="stroke:#CCFF02;stroke-width:1.0;" width="135" x="255.5" y="70.8906"/><line style="stroke:#000000;stroke-width:1.0;" x1="254" x2="391" y1="70.8906" y2="70.8906"/><text fill="#000000" font-family="sans-serif" font-size="14" font-weight="bold" lengthAdjust="spacing" textLength="30" x="259" y="85.8857">u16</text><text fill="#000000" font-family="sans-serif" font-size="14" lengthAdjust="spacing" textLength="54" x="309" y="85.8857">(ignore)</text><line style="stroke:#000000;stroke-width:1.0;" x1="304" x2="304" y1="70.8906" y2="91.1875"/><rect fill="#CCFF02" height="20.2969" rx="2" ry="2" style="stroke:#CCFF02;stroke-width:1.0;" width="135" x="255.5" y="91.1875"/><line style="stroke:#000000;stroke-width:1.0;" x1="254" x2="391" y1="91.1875" y2="91.1875"/><text fill="#000000" font-family="sans-serif" font-size="14" font-weight="bold" lengthAdjust="spacing" textLength="20" x="259" y="106.1826">u8</text><text fill="#000000" font-family="sans-serif" font-size="14" lengthAdjust="spacing" textLength="54" x="309" y="106.1826">(ignore)</text><line style="stroke:#000000;stroke-width:1.0;" x1="304" x2="304" y1="91.1875" y2="111.4844"/><rect fill="none" height="101.4844" rx="5" ry="5" style="stroke:#000000;stroke-width:1.5;" width="137" x="254" y="10"/><rect fill="#F1F1F1" height="60.8906" rx="5" ry="5" style="stroke:#F1F1F1;stroke-width:1.5;" width="135" x="255" y="129"/><text fill="#000000" font-family="sans-serif" font-size="14" font-weight="bold" lengthAdjust="spacing" textLength="45" x="260" y="143.9951">varint</text><text fill="#000000" font-family="sans-serif" font-size="14" lengthAdjust="spacing" textLength="54" x="331" y="143.9951">(ignore)</text><line style="stroke:#000000;stroke-width:1.0;" x1="326" x2="326" y1="129" y2="149.2969"/><line style="stroke:#000000;stroke-width:1.0;" x1="255" x2="390" y1="149.2969" y2="149.2969"/><text fill="#000000" font-family="sans-serif" font-size="14" font-weight="bold" lengthAdjust="spacing" textLength="45" x="260" y="164.292">varint</text><text fill="#000000" font-family="sans-serif" font-size="14" lengthAdjust="spacing" textLength="42" x="331" y="164.292">RowId</text><line style="stroke:#000000;stroke-width:1.0;" x1="326" x2="326" y1="149.2969" y2="169.5938"/><line style="stroke:#000000;stroke-width:1.0;" x1="255" x2="390" y1="169.5938" y2="169.5938"/><text fill="#000000" font-family="sans-serif" font-size="14" font-weight="bold" lengthAdjust="spacing" textLength="61" x="260" y="184.5889">Payload</text><text fill="#000000" font-family="sans-serif" font-size="14" lengthAdjust="spacing" textLength="27" x="331" y="184.5889">   </text><line style="stroke:#000000;stroke-width:1.0;" x1="326" x2="326" y1="169.5938" y2="189.8906"/><rect fill="none" height="60.8906" rx="5" ry="5" style="stroke:#000000;stroke-width:1.5;" width="135" x="255" y="129"/><rect fill="#F1F1F1" height="40.5938" rx="5" ry="5" style="stroke:#F1F1F1;stroke-width:1.5;" width="150" x="428" y="159"/><rect fill="#CCFF02" height="20.2969" rx="2" ry="2" style="stroke:#CCFF02;stroke-width:1.0;" width="148" x="429.5" y="159"/><text fill="#000000" font-family="sans-serif" font-size="14" font-weight="bold" lengthAdjust="spacing" textLength="118" x="433" y="173.9951">Record Header</text><text fill="#000000" font-family="sans-serif" font-size="14" lengthAdjust="spacing" textLength="27" x="561" y="173.9951">   </text><line style="stroke:#000000;stroke-width:1.0;" x1="556" x2="556" y1="159" y2="179.2969"/><rect fill="#CCFF02" height="20.2969" rx="2" ry="2" style="stroke:#CCFF02;stroke-width:1.0;" width="148" x="429.5" y="179.2969"/><line style="stroke:#000000;stroke-width:1.0;" x1="428" x2="578" y1="179.2969" y2="179.2969"/><text fill="#000000" font-family="sans-serif" font-size="14" font-weight="bold" lengthAdjust="spacing" textLength="100" x="433" y="194.292">Record Body</text><text fill="#000000" font-family="sans-serif" font-size="14" lengthAdjust="spacing" textLength="27" x="561" y="194.292">   </text><line style="stroke:#000000;stroke-width:1.0;" x1="556" x2="556" y1="179.2969" y2="199.5938"/><rect fill="none" height="40.5938" rx="5" ry="5" style="stroke:#000000;stroke-width:1.5;" width="150" x="428" y="159"/><rect fill="#F1F1F1" height="40.5938" rx="5" ry="5" style="stroke:#F1F1F1;stroke-width:1.5;" width="221" x="615" y="134"/><rect fill="#CCFF02" height="20.2969" rx="2" ry="2" style="stroke:#CCFF02;stroke-width:1.0;" width="219" x="616.5" y="134"/><text fill="#000000" font-family="sans-serif" font-size="14" font-weight="bold" lengthAdjust="spacing" textLength="45" x="620" y="148.9951">varint</text><text fill="#000000" font-family="sans-serif" font-size="14" lengthAdjust="spacing" textLength="119" x="687" y="148.9951">Total header size</text><line style="stroke:#000000;stroke-width:1.0;" x1="682" x2="682" y1="134" y2="154.2969"/><rect fill="#CCFF02" height="20.2969" rx="2" ry="2" style="stroke:#CCFF02;stroke-width:1.0;" width="219" x="616.5" y="154.2969"/><line style="stroke:#000000;stroke-width:1.0;" x1="615" x2="836" y1="154.2969" y2="154.2969"/><text fill="#000000" font-family="sans-serif" font-size="14" font-weight="bold" lengthAdjust="spacing" textLength="57" x="620" y="169.292">varint[]</text><text fill="#000000" font-family="sans-serif" font-size="14" lengthAdjust="spacing" textLength="144" x="687" y="169.292">Serial (column) types</text><line style="stroke:#000000;stroke-width:1.0;" x1="682" x2="682" y1="154.2969" y2="174.5938"/><rect fill="none" height="40.5938" rx="5" ry="5" style="stroke:#000000;stroke-width:1.5;" width="221" x="615" y="134"/><rect fill="#F1F1F1" height="20.2969" rx="5" ry="5" style="stroke:#F1F1F1;stroke-width:1.5;" width="110" x="670.5" y="193.5"/><text fill="#000000" font-family="sans-serif" font-size="14" font-weight="bold" lengthAdjust="spacing" textLength="44" x="675.5" y="208.4951">u8[][]</text><text fill="#000000" font-family="sans-serif" font-size="14" lengthAdjust="spacing" textLength="46" x="729.5" y="208.4951">Values</text><line style="stroke:#000000;stroke-width:1.0;" x1="724.5" x2="724.5" y1="193.5" y2="213.7969"/><rect fill="none" height="20.2969" rx="5" ry="5" style="stroke:#000000;stroke-width:1.5;" width="110" x="670.5" y="193.5"/><path d="M205,79.5 L218,79.5 C227.3414,79.5 237.079,78.749 246.6861,77.5457 " fill="none" style="stroke:#000000;stroke-width:1.0;stroke-dasharray:3.0,3.0;"/><path d="M247.1087,80.6124 L248.9861,77.2288 L246.2636,74.479 L254.3528,76.4894 L247.1087,80.6124 " fill="#000000" style="stroke:#000000;stroke-width:1.0;"/><ellipse cx="205" cy="79.5" fill="#000000" rx="3" ry="3" style="stroke:#000000;stroke-width:1.0;"/><path d="M566,168.5 L579,168.5 C588.4354,168.5 598.1982,168.2067 607.996,167.705 " fill="none" style="stroke:#000000;stroke-width:1.0;stroke-dasharray:3.0,3.0;"/><path d="M608.1651,170.7027 L610.2443,167.5781 L607.8268,164.7072 L615.4904,167.2821 L608.1651,170.7027 " fill="#000000" style="stroke:#000000;stroke-width:1.0;"/><ellipse cx="566" cy="168.5" fill="#000000" rx="3" ry="3" style="stroke:#000000;stroke-width:1.0;"/><path d="M566,189.5 L579,189.5 C606.695,189.5 637.2108,192.0271 663.1514,194.9339 " fill="none" style="stroke:#000000;stroke-width:1.0;stroke-dasharray:3.0,3.0;"/><path d="M662.8034,197.9503 L665.4137,195.1949 L663.4993,191.9175 L670.6925,195.8038 L662.8034,197.9503 " fill="#000000" style="stroke:#000000;stroke-width:1.0;"/><ellipse cx="566" cy="189.5" fill="#000000" rx="3" ry="3" style="stroke:#000000;stroke-width:1.0;"/><path d="M379,179.5 L392,179.5 C401.3095,179.5 411.0602,179.5 420.7503,179.5 " fill="none" style="stroke:#000000;stroke-width:1.0;stroke-dasharray:3.0,3.0;"/><path d="M420.7503,182.5995 L423.0749,179.5 L420.7503,176.4005 L428.4989,179.5 L420.7503,182.5995 " fill="#000000" style="stroke:#000000;stroke-width:1.0;"/><ellipse cx="379" cy="179.5" fill="#000000" rx="3" ry="3" style="stroke:#000000;stroke-width:1.0;"/><path d="M205,140.5 L218,140.5 C227.7264,140.5 237.8824,141.3141 247.8733,142.6054 " fill="none" style="stroke:#000000;stroke-width:1.0;stroke-dasharray:3.0,3.0;"/><path d="M247.4434,145.6446 L250.1528,142.9278 L248.3033,139.5661 L255.4714,143.6802 L247.4434,145.6446 " fill="#000000" style="stroke:#000000;stroke-width:1.0;"/><ellipse cx="205" cy="140.5" fill="#000000" rx="3" ry="3" style="stroke:#000000;stroke-width:1.0;"/><!--MD5=[b387d5bd00ebfb5b297754b44d26c382]
@startjson
#highlight "Page Header"
#highlight "u16[]"
#highlight "u8[]"
#highlight "Cell[]"

#highlight "Page Header" / "u8"
#highlight "Page Header" / "u16"
#highlight "Page Header" / "u16 "
#highlight "Page Header" / "u16  "
#highlight "Page Header" / "u8"

#highlight "Cell[]" / "Payload" / "Record Header"
#highlight "Cell[]" / "Payload" / "Record Header" / "varint"
#highlight "Cell[]" / "Payload" / "Record Header" / "varint[]"

#highlight "Cell[]" / "Payload" / "Record Body"
{
   "Page Header": {
     "u8":    "Page type",
     "u16":   "(ignore)",
     "u16 ":  "Cells count",
     "u16  ": "(ignore)",
     "u8":    "(ignore)"
   },
   "u16[]":  "Cell pointers",
   "u8[]":   "(ignore)",
   "Cell[]": {
     "varint":       "(ignore)",
     "varint":       "RowId",
     "Payload": {
       "Record Header": {
         "varint":   "Total header size",
         "varint[]": "Serial (column) types"
       },
       "Record Body": {
         "u8[][]": "Values"
       }
     }
   }
}
@endjson

PlantUML version 1.2022.12(Sun Oct 23 20:12:26 CEST 2022)
(GPL source distribution)
Java Runtime: OpenJDK Runtime Environment
JVM: OpenJDK 64-Bit Server VM
Default Encoding: UTF-8
Language: en
Country: US
--></g></svg>